<svg width="171" height="101" viewBox="0 0 171 101" fill="none" xmlns="http://www.w3.org/2000/svg">
<g id="logo-horizontal-light">
<g id="text">
<g id="ducir">
<mask id="path-1-inside-1_143_56" fill="white">
<path d="M108.62 37C108.96 37 109.24 37.12 109.46 37.36C109.7 37.58 109.82 37.86 109.82 38.2V57.97C109.82 58.31 109.7 58.6 109.46 58.84C109.24 59.08 108.96 59.2 108.62 59.2C108.26 59.2 107.97 59.08 107.75 58.84C107.53 58.6 107.42 58.31 107.42 57.97V55.12L107.99 54.91C107.99 55.39 107.84 55.9 107.54 56.44C107.24 56.96 106.83 57.45 106.31 57.91C105.79 58.37 105.17 58.75 104.45 59.05C103.75 59.35 102.99 59.5 102.17 59.5C100.83 59.5 99.61 59.15 98.51 58.45C97.43 57.75 96.57 56.79 95.93 55.57C95.31 54.35 95 52.96 95 51.4C95 49.82 95.31 48.42 95.93 47.2C96.57 45.98 97.43 45.03 98.51 44.35C99.59 43.65 100.79 43.3 102.11 43.3C102.95 43.3 103.74 43.44 104.48 43.72C105.22 44 105.86 44.38 106.4 44.86C106.96 45.34 107.4 45.87 107.72 46.45C108.04 47.03 108.2 47.61 108.2 48.19L107.42 48.01V38.2C107.42 37.86 107.53 37.58 107.75 37.36C107.97 37.12 108.26 37 108.62 37ZM102.44 57.28C103.44 57.28 104.32 57.03 105.08 56.53C105.86 56.01 106.46 55.31 106.88 54.43C107.32 53.53 107.54 52.52 107.54 51.4C107.54 50.26 107.32 49.25 106.88 48.37C106.46 47.49 105.86 46.8 105.08 46.3C104.32 45.78 103.44 45.52 102.44 45.52C101.46 45.52 100.58 45.78 99.8 46.3C99.04 46.8 98.44 47.49 98 48.37C97.56 49.25 97.34 50.26 97.34 51.4C97.34 52.5 97.56 53.5 98 54.4C98.44 55.28 99.04 55.98 99.8 56.5C100.58 57.02 101.46 57.28 102.44 57.28Z"/>
<path d="M126.946 43.69C127.306 43.69 127.596 43.81 127.816 44.05C128.036 44.27 128.146 44.55 128.146 44.89V53.08C128.146 55.1 127.576 56.67 126.436 57.79C125.316 58.89 123.746 59.44 121.726 59.44C119.726 59.44 118.156 58.89 117.016 57.79C115.896 56.67 115.336 55.1 115.336 53.08V44.89C115.336 44.55 115.446 44.27 115.666 44.05C115.906 43.81 116.196 43.69 116.536 43.69C116.896 43.69 117.186 43.81 117.406 44.05C117.626 44.27 117.736 44.55 117.736 44.89V53.08C117.736 54.44 118.086 55.47 118.786 56.17C119.486 56.87 120.466 57.22 121.726 57.22C123.026 57.22 124.016 56.87 124.696 56.17C125.396 55.47 125.746 54.44 125.746 53.08V44.89C125.746 44.55 125.856 44.27 126.076 44.05C126.316 43.81 126.606 43.69 126.946 43.69Z"/>
<path d="M140.092 43.3C141.112 43.3 142.032 43.41 142.852 43.63C143.672 43.85 144.322 44.15 144.802 44.53C145.282 44.91 145.522 45.34 145.522 45.82C145.522 46.08 145.432 46.33 145.252 46.57C145.072 46.81 144.832 46.93 144.532 46.93C144.252 46.93 144.022 46.88 143.842 46.78C143.682 46.68 143.522 46.55 143.362 46.39C143.222 46.23 143.022 46.09 142.762 45.97C142.522 45.83 142.172 45.72 141.712 45.64C141.252 45.56 140.792 45.52 140.332 45.52C139.232 45.52 138.262 45.78 137.422 46.3C136.602 46.82 135.952 47.52 135.472 48.4C134.992 49.28 134.752 50.28 134.752 51.4C134.752 52.52 134.982 53.52 135.442 54.4C135.902 55.28 136.542 55.98 137.362 56.5C138.182 57.02 139.132 57.28 140.212 57.28C140.912 57.28 141.472 57.22 141.892 57.1C142.312 56.98 142.662 56.84 142.942 56.68C143.302 56.48 143.572 56.28 143.752 56.08C143.952 55.88 144.212 55.78 144.532 55.78C144.872 55.78 145.132 55.89 145.312 56.11C145.512 56.33 145.612 56.6 145.612 56.92C145.612 57.28 145.362 57.66 144.862 58.06C144.362 58.46 143.682 58.8 142.822 59.08C141.982 59.36 141.022 59.5 139.942 59.5C138.422 59.5 137.092 59.15 135.952 58.45C134.812 57.73 133.922 56.76 133.282 55.54C132.662 54.3 132.352 52.92 132.352 51.4C132.352 49.88 132.672 48.51 133.312 47.29C133.972 46.07 134.882 45.1 136.042 44.38C137.202 43.66 138.552 43.3 140.092 43.3Z"/>
<path d="M151.659 57.97C151.659 58.31 151.539 58.6 151.299 58.84C151.079 59.08 150.799 59.2 150.459 59.2C150.099 59.2 149.809 59.08 149.589 58.84C149.369 58.6 149.259 58.31 149.259 57.97V44.65C149.259 44.31 149.369 44.03 149.589 43.81C149.829 43.57 150.119 43.45 150.459 43.45C150.799 43.45 151.079 43.57 151.299 43.81C151.539 44.03 151.659 44.31 151.659 44.65V57.97Z"/>
<path d="M157.77 59.2C157.43 59.2 157.14 59.08 156.9 58.84C156.68 58.6 156.57 58.31 156.57 57.97V44.89C156.57 44.55 156.68 44.27 156.9 44.05C157.14 43.81 157.43 43.69 157.77 43.69C158.13 43.69 158.42 43.81 158.64 44.05C158.86 44.27 158.97 44.55 158.97 44.89V48.85L158.61 48.22C158.73 47.6 158.94 47 159.24 46.42C159.56 45.82 159.96 45.29 160.44 44.83C160.92 44.35 161.47 43.98 162.09 43.72C162.71 43.44 163.39 43.3 164.13 43.3C164.57 43.3 164.97 43.41 165.33 43.63C165.71 43.83 165.9 44.12 165.9 44.5C165.9 44.92 165.79 45.23 165.57 45.43C165.35 45.63 165.1 45.73 164.82 45.73C164.56 45.73 164.31 45.68 164.07 45.58C163.83 45.46 163.53 45.4 163.17 45.4C162.67 45.4 162.17 45.54 161.67 45.82C161.19 46.08 160.74 46.46 160.32 46.96C159.92 47.46 159.59 48.03 159.33 48.67C159.09 49.29 158.97 49.96 158.97 50.68V57.97C158.97 58.31 158.85 58.6 158.61 58.84C158.39 59.08 158.11 59.2 157.77 59.2Z"/>
</mask>
<path d="M108.62 37C108.96 37 109.24 37.12 109.46 37.36C109.7 37.58 109.82 37.86 109.82 38.2V57.97C109.82 58.31 109.7 58.6 109.46 58.84C109.24 59.08 108.96 59.2 108.62 59.2C108.26 59.2 107.97 59.08 107.75 58.84C107.53 58.6 107.42 58.31 107.42 57.97V55.12L107.99 54.91C107.99 55.39 107.84 55.9 107.54 56.44C107.24 56.96 106.83 57.45 106.31 57.91C105.79 58.37 105.17 58.75 104.45 59.05C103.75 59.35 102.99 59.5 102.17 59.5C100.83 59.5 99.61 59.15 98.51 58.45C97.43 57.75 96.57 56.79 95.93 55.57C95.31 54.35 95 52.96 95 51.4C95 49.82 95.31 48.42 95.93 47.2C96.57 45.98 97.43 45.03 98.51 44.35C99.59 43.65 100.79 43.3 102.11 43.3C102.95 43.3 103.74 43.44 104.48 43.72C105.22 44 105.86 44.38 106.4 44.86C106.96 45.34 107.4 45.87 107.72 46.45C108.04 47.03 108.2 47.61 108.2 48.19L107.42 48.01V38.2C107.42 37.86 107.53 37.58 107.75 37.36C107.97 37.12 108.26 37 108.62 37ZM102.44 57.28C103.44 57.28 104.32 57.03 105.08 56.53C105.86 56.01 106.46 55.31 106.88 54.43C107.32 53.53 107.54 52.52 107.54 51.4C107.54 50.26 107.32 49.25 106.88 48.37C106.46 47.49 105.86 46.8 105.08 46.3C104.32 45.78 103.44 45.52 102.44 45.52C101.46 45.52 100.58 45.78 99.8 46.3C99.04 46.8 98.44 47.49 98 48.37C97.56 49.25 97.34 50.26 97.34 51.4C97.34 52.5 97.56 53.5 98 54.4C98.44 55.28 99.04 55.98 99.8 56.5C100.58 57.02 101.46 57.28 102.44 57.28Z" stroke="white" stroke-width="4" stroke-linejoin="round" mask="url(#path-1-inside-1_143_56)"/>
<path d="M126.946 43.69C127.306 43.69 127.596 43.81 127.816 44.05C128.036 44.27 128.146 44.55 128.146 44.89V53.08C128.146 55.1 127.576 56.67 126.436 57.79C125.316 58.89 123.746 59.44 121.726 59.44C119.726 59.44 118.156 58.89 117.016 57.79C115.896 56.67 115.336 55.1 115.336 53.08V44.89C115.336 44.55 115.446 44.27 115.666 44.05C115.906 43.81 116.196 43.69 116.536 43.69C116.896 43.69 117.186 43.81 117.406 44.05C117.626 44.27 117.736 44.55 117.736 44.89V53.08C117.736 54.44 118.086 55.47 118.786 56.17C119.486 56.87 120.466 57.22 121.726 57.22C123.026 57.22 124.016 56.87 124.696 56.17C125.396 55.47 125.746 54.44 125.746 53.08V44.89C125.746 44.55 125.856 44.27 126.076 44.05C126.316 43.81 126.606 43.69 126.946 43.69Z" stroke="white" stroke-width="4" stroke-linejoin="round" mask="url(#path-1-inside-1_143_56)"/>
<path d="M140.092 43.3C141.112 43.3 142.032 43.41 142.852 43.63C143.672 43.85 144.322 44.15 144.802 44.53C145.282 44.91 145.522 45.34 145.522 45.82C145.522 46.08 145.432 46.33 145.252 46.57C145.072 46.81 144.832 46.93 144.532 46.93C144.252 46.93 144.022 46.88 143.842 46.78C143.682 46.68 143.522 46.55 143.362 46.39C143.222 46.23 143.022 46.09 142.762 45.97C142.522 45.83 142.172 45.72 141.712 45.64C141.252 45.56 140.792 45.52 140.332 45.52C139.232 45.52 138.262 45.78 137.422 46.3C136.602 46.82 135.952 47.52 135.472 48.4C134.992 49.28 134.752 50.28 134.752 51.4C134.752 52.52 134.982 53.52 135.442 54.4C135.902 55.28 136.542 55.98 137.362 56.5C138.182 57.02 139.132 57.28 140.212 57.28C140.912 57.28 141.472 57.22 141.892 57.1C142.312 56.98 142.662 56.84 142.942 56.68C143.302 56.48 143.572 56.28 143.752 56.08C143.952 55.88 144.212 55.78 144.532 55.78C144.872 55.78 145.132 55.89 145.312 56.11C145.512 56.33 145.612 56.6 145.612 56.92C145.612 57.28 145.362 57.66 144.862 58.06C144.362 58.46 143.682 58.8 142.822 59.08C141.982 59.36 141.022 59.5 139.942 59.5C138.422 59.5 137.092 59.15 135.952 58.45C134.812 57.73 133.922 56.76 133.282 55.54C132.662 54.3 132.352 52.92 132.352 51.4C132.352 49.88 132.672 48.51 133.312 47.29C133.972 46.07 134.882 45.1 136.042 44.38C137.202 43.66 138.552 43.3 140.092 43.3Z" stroke="white" stroke-width="4" stroke-linejoin="round" mask="url(#path-1-inside-1_143_56)"/>
<path d="M151.659 57.97C151.659 58.31 151.539 58.6 151.299 58.84C151.079 59.08 150.799 59.2 150.459 59.2C150.099 59.2 149.809 59.08 149.589 58.84C149.369 58.6 149.259 58.31 149.259 57.97V44.65C149.259 44.31 149.369 44.03 149.589 43.81C149.829 43.57 150.119 43.45 150.459 43.45C150.799 43.45 151.079 43.57 151.299 43.81C151.539 44.03 151.659 44.31 151.659 44.65V57.97Z" stroke="white" stroke-width="4" stroke-linejoin="round" mask="url(#path-1-inside-1_143_56)"/>
<path d="M157.77 59.2C157.43 59.2 157.14 59.08 156.9 58.84C156.68 58.6 156.57 58.31 156.57 57.97V44.89C156.57 44.55 156.68 44.27 156.9 44.05C157.14 43.81 157.43 43.69 157.77 43.69C158.13 43.69 158.42 43.81 158.64 44.05C158.86 44.27 158.97 44.55 158.97 44.89V48.85L158.61 48.22C158.73 47.6 158.94 47 159.24 46.42C159.56 45.82 159.96 45.29 160.44 44.83C160.92 44.35 161.47 43.98 162.09 43.72C162.71 43.44 163.39 43.3 164.13 43.3C164.57 43.3 164.97 43.41 165.33 43.63C165.71 43.83 165.9 44.12 165.9 44.5C165.9 44.92 165.79 45.23 165.57 45.43C165.35 45.63 165.1 45.73 164.82 45.73C164.56 45.73 164.31 45.68 164.07 45.58C163.83 45.46 163.53 45.4 163.17 45.4C162.67 45.4 162.17 45.54 161.67 45.82C161.19 46.08 160.74 46.46 160.32 46.96C159.92 47.46 159.59 48.03 159.33 48.67C159.09 49.29 158.97 49.96 158.97 50.68V57.97C158.97 58.31 158.85 58.6 158.61 58.84C158.39 59.08 158.11 59.2 157.77 59.2Z" stroke="white" stroke-width="4" stroke-linejoin="round" mask="url(#path-1-inside-1_143_56)"/>
</g>
<path id="re" d="M65.0338 59.576C64.8658 59.576 64.6738 59.528 64.4578 59.432C64.2658 59.336 64.0858 59.192 63.9178 59C63.7738 58.832 63.7018 58.652 63.7018 58.46C63.7018 58.196 63.7618 57.896 63.8818 57.56C64.0018 57.2 64.1578 56.756 64.3498 56.228L67.7698 47.336C67.8898 47.048 67.9258 46.796 67.8778 46.58C67.8538 46.34 67.7218 46.22 67.4818 46.22C67.0978 46.22 66.7498 46.28 66.4378 46.4C66.1258 46.52 65.8498 46.664 65.6098 46.832C65.4658 46.928 65.3218 46.952 65.1778 46.904C65.0338 46.856 64.9618 46.736 64.9618 46.544C64.9378 46.256 65.0578 45.944 65.3218 45.608C65.6098 45.272 65.9698 44.972 66.4018 44.708C66.7618 44.444 67.1818 44.24 67.6618 44.096C68.1418 43.928 68.6218 43.844 69.1018 43.844C69.7738 43.844 70.2178 44.024 70.4338 44.384C70.6498 44.72 70.7098 45.188 70.6138 45.788C70.5418 46.364 70.3498 47.024 70.0378 47.768L68.4898 51.548C68.3938 51.716 68.4178 51.824 68.5618 51.872C68.7298 51.92 68.8498 51.872 68.9218 51.728C69.8338 50.12 70.7458 48.728 71.6578 47.552C72.5938 46.352 73.4698 45.416 74.2858 44.744C75.1258 44.072 75.8818 43.736 76.5538 43.736C77.2258 43.736 77.7058 43.928 77.9938 44.312C78.3058 44.696 78.4618 45.164 78.4618 45.716C78.4618 46.22 78.3538 46.724 78.1378 47.228C77.9458 47.732 77.6818 48.152 77.3458 48.488C77.0338 48.8 76.7098 48.956 76.3738 48.956C76.1338 48.956 75.9538 48.836 75.8338 48.596C75.7378 48.356 75.6658 48.02 75.6178 47.588C75.5938 47.228 75.5218 46.928 75.4018 46.688C75.3058 46.424 75.1258 46.292 74.8618 46.292C74.5498 46.292 74.1898 46.496 73.7818 46.904C73.3738 47.288 72.8818 47.9 72.3058 48.74C72.0658 49.076 71.7418 49.556 71.3338 50.18C70.9258 50.78 70.4938 51.452 70.0378 52.196C69.5818 52.94 69.1258 53.684 68.6698 54.428C68.2138 55.172 67.8178 55.844 67.4818 56.444C66.9058 57.476 66.4378 58.256 66.0778 58.784C65.7178 59.312 65.3698 59.576 65.0338 59.576ZM82.9373 59.54C82.3853 59.54 81.8093 59.348 81.2093 58.964C80.6333 58.58 80.1413 58.076 79.7333 57.452C79.3493 56.828 79.1573 56.204 79.1573 55.58C79.1573 54.26 79.4093 52.916 79.9133 51.548C80.4413 50.18 81.1493 48.92 82.0373 47.768C82.9253 46.592 83.9333 45.644 85.0613 44.924C86.2133 44.204 87.4133 43.844 88.6613 43.844C89.6933 43.844 90.4733 44.06 91.0013 44.492C91.5293 44.9 91.7933 45.428 91.7933 46.076C91.7933 46.844 91.5413 47.516 91.0373 48.092C90.5573 48.644 89.9093 49.124 89.0933 49.532C88.2773 49.94 87.3773 50.276 86.3933 50.54C85.4333 50.804 84.4613 51.032 83.4773 51.224C83.3573 51.248 83.2613 51.284 83.1893 51.332C83.1173 51.356 83.0573 51.428 83.0093 51.548C82.8893 51.956 82.7693 52.4 82.6493 52.88C82.5293 53.36 82.4573 53.804 82.4333 54.212C82.4333 55.052 82.6133 55.736 82.9733 56.264C83.3573 56.768 83.9213 57.02 84.6653 57.02C85.4573 57.02 86.1413 56.828 86.7173 56.444C87.2933 56.036 87.8093 55.592 88.2653 55.112C88.5053 54.848 88.7093 54.716 88.8773 54.716C89.1173 54.716 89.2373 54.836 89.2373 55.076C89.2373 55.124 89.2373 55.184 89.2373 55.256C89.2373 55.328 89.2133 55.388 89.1653 55.436C88.6853 56.252 88.1333 56.972 87.5093 57.596C86.8853 58.196 86.1893 58.664 85.4213 59C84.6773 59.36 83.8493 59.54 82.9373 59.54ZM83.7293 50.216C84.0893 50.168 84.5693 50.06 85.1693 49.892C85.7693 49.724 86.3693 49.472 86.9693 49.136C87.5933 48.8 88.1213 48.38 88.5533 47.876C88.9853 47.372 89.2013 46.76 89.2013 46.04C89.2013 45.752 89.1173 45.488 88.9493 45.248C88.7813 45.008 88.5413 44.888 88.2293 44.888C87.7493 44.888 87.2453 45.08 86.7173 45.464C86.1893 45.848 85.6853 46.316 85.2053 46.868C84.7253 47.42 84.3293 47.984 84.0173 48.56C83.7053 49.136 83.5253 49.616 83.4773 50C83.4773 50.168 83.5613 50.24 83.7293 50.216Z" fill="white"/>
<circle id="Ellipse 1" cx="150.5" cy="40.5" r="1.5" fill="white"/>
</g>
<g id="clock">
<path id="Vector 1" d="M15.0001 37C5.00014 45.5 3.00003 71.5 30.5 74M43.5001 70C50.5947 64.2356 58.4759 50.2132 44.8245 37M38.5001 32C34.893 30.1965 28.756 27.6701 24.0001 25.9418M38.5001 32C37.2188 26.9817 33.8855 20.0208 28.5001 18.9261M38.5001 32C40.9898 33.6409 43.0824 35.3139 44.8245 37M38.5001 68V73H43.5001M17.5001 24C17.7648 26.3821 18.2017 28.3644 18.7737 30M17.5001 24C18.2977 24 20.845 24.7953 24.0001 25.9418M17.5001 24C21.8125 19.5439 25.4791 18.312 28.5001 18.9261M37.0001 32.5C33.3188 35.5317 27.0349 38.6337 22.5352 35.5M18.7737 30L24.0001 25.9418M18.7737 30C19.7161 32.6945 21.0252 34.4484 22.5352 35.5M24.0001 25.9418L21.5001 21.5M22.5352 35.5L30.0001 29L28.5001 18.9261M44.8245 37C44.3628 32.4446 45.2798 25.0069 51.0001 23.4402M44.8245 37L51.0001 31.2447M44.8245 37C54.1879 38.7222 57.8601 35.8136 58.8415 32M58.202 24.533C58.1367 24.351 58.0693 24.1732 58.0001 24C55.111 23.0369 52.814 22.9434 51.0001 23.4402M58.202 24.533L51.0001 31.2447M58.202 24.533C58.994 26.7398 59.4704 29.5558 58.8415 32M51.0001 23.4402V31.2447M51.0001 31.2447L58.8415 32" stroke="white" stroke-width="2" stroke-miterlimit="1.30541" stroke-linecap="round"/>
</g>
<g id="needle">
<path id="Vector 2" d="M30 45V52.5L34 56.5" stroke="white" stroke-width="2" stroke-linecap="round"/>
</g>
</g>
</svg>
