<svg id="Capa_1" data-name="Capa 1" xmlns="http://www.w3.org/2000/svg" viewBox="0 0 35.87 35.56"><defs><style>.cls-1,.cls-2{fill:#115a41;}.cls-1{stroke:#115a41;stroke-miterlimit:10;stroke-width:2px;}</style></defs><path class="cls-1" d="M6.82,39.72s-2.82-.33,0-5.54S12,27.78,12,27.78a18.58,18.58,0,0,1,10.71-3.49A16.9,16.9,0,0,1,33,27.82s4,3.36,5.35,6.89c.71,1.84.9,2.55,1,2.77a1.7,1.7,0,0,1,.09.94,1.5,1.5,0,0,1-1.36,1.3A1.55,1.55,0,0,1,36,38.45c0-.09,0-.18-.05-.27A15.52,15.52,0,0,0,32,31.41c-3.21-3.17-8.19-3.68-8.19-3.68a13.91,13.91,0,0,0-8.93,2.14A14.53,14.53,0,0,0,9.3,37L9,38.26a2.05,2.05,0,0,1-1.09,1.36A1.44,1.44,0,0,1,6.82,39.72Z" transform="translate(-4.57 -5.22)"/><circle class="cls-2" cx="17.88" cy="7.63" r="7.63"/></svg>